<mxfile host="app.diagrams.net" modified="2023-11-24T04:50:32.326Z" agent="Mozilla/5.0 (Macintosh; Intel Mac OS X 10_15_7) AppleWebKit/605.1.15 (KHTML, like Gecko) Version/16.6 Safari/605.1.15" version="22.1.3" etag="SdGiUH5o7baRA6GX2Ae0" type="github">
  <diagram name="第 1 页" id="0J95AYAEyh2etBmY4kA0">
    <mxGraphModel>
      <root>
        <mxCell id="0" />
        <mxCell id="1" parent="0" />
      </root>
    </mxGraphModel>
  </diagram>
</mxfile>
